<svg id="Calque_1" data-name="Calque 1" xmlns="http://www.w3.org/2000/svg" width="20" height="8" viewBox="0 0 20 8"><defs><style>.cls-1{fill:#237fbd;}</style></defs><path class="cls-1" d="M20,6.51a1.4,1.4,0,0,1-.13.57,1.67,1.67,0,0,1-.38.47A2.17,2.17,0,0,1,18.08,8H1.86C.63,8,0,7.25,0,6.52a1.3,1.3,0,0,1,.14-.58,1.57,1.57,0,0,1,.4-.49,1.68,1.68,0,0,1,.58-.3,1.64,1.64,0,0,1,.66-.07H18.2a1.84,1.84,0,0,1,.66.07,1.71,1.71,0,0,1,.58.31,1.32,1.32,0,0,1,.4.48,1.29,1.29,0,0,1,.16.57Z"/><path class="cls-1" d="M7,1.44A1.4,1.4,0,0,1,6.87,2a1.51,1.51,0,0,1-.38.46,2.17,2.17,0,0,1-1.41.46H1.86C.63,2.93,0,2.18,0,1.45A1.38,1.38,0,0,1,.14.86,1.65,1.65,0,0,1,.54.38a1.68,1.68,0,0,1,.58-.3A1.84,1.84,0,0,1,1.78,0H5.2a2.1,2.1,0,0,1,.66.08,1.71,1.71,0,0,1,.58.31,1.41,1.41,0,0,1,.56,1Z"/></svg>