<svg id="Calque_1" data-name="Calque 1" xmlns="http://www.w3.org/2000/svg" width="60" height="66.2" viewBox="0 0 60 66.2"><defs><style>.cls-1{fill:#f5f4f2;}.cls-2{fill:#237fbd;}</style></defs><path class="cls-1" d="M0,10A10,10,0,0,1,10,0H50A10,10,0,0,1,60,10V50A10,10,0,0,1,50,60H10A10,10,0,0,1,0,50Z"/><path class="cls-2" d="M38.79,54.2l10.3-16.5h5.8L48.19,52a7.74,7.74,0,0,1,3,2.7,7.91,7.91,0,0,1,1.1,4,7.35,7.35,0,0,1-7.5,7.5,6.88,6.88,0,0,1-5.2-2.2,7.21,7.21,0,0,1-2.2-5.3A8.65,8.65,0,0,1,38.79,54.2Z"/><path class="cls-2" d="M20.4,54.2,30.7,37.7h5.8L29.8,52a7.74,7.74,0,0,1,3,2.7,7.91,7.91,0,0,1,1.1,4,7.35,7.35,0,0,1-7.5,7.5A6.88,6.88,0,0,1,21.2,64,7.21,7.21,0,0,1,19,58.7,8.65,8.65,0,0,1,20.4,54.2Z"/></svg>