<svg width="68" height="56" viewBox="0 0 68 56" fill="none" xmlns="http://www.w3.org/2000/svg">
<path d="M29.5946 1.34401C21.763 8.81067 17.8471 16.4267 17.8471 24.192C17.8471 27.9253 21.2359 33.6747 28.0133 41.44V41.888L10.166 56C3.38864 51.2213 0 45.0987 0 37.632C0 30.6133 2.93686 23.6693 8.81062 16.8C14.6844 9.78133 21.2359 4.18133 28.4651 0L29.5946 1.34401ZM68 1.34401C60.1683 8.81067 56.2525 16.4267 56.2525 24.192C56.2525 27.9253 59.6411 33.6747 66.4186 41.44V41.888L48.5714 56C41.794 51.2213 38.4053 45.0987 38.4053 37.632C38.4053 30.6133 41.3422 23.6693 47.216 16.8C53.0897 9.78133 59.6411 4.18133 66.8704 0L68 1.34401Z" fill="white"/>
</svg>
