<svg width="18" height="17" viewBox="0 0 18 17" fill="none" xmlns="http://www.w3.org/2000/svg">
<path d="M17.2633 14.9323C17.2633 15.3028 16.9485 15.6036 16.5607 15.6036C16.1729 15.6036 15.8581 15.3028 15.8581 14.9323L15.8581 3.12777L2.15249 16.2211C2.0204 16.3482 1.84334 16.418 1.65598 16.418C1.46862 16.418 1.29156 16.3482 1.15947 16.2211C1.02644 16.0949 0.953369 15.9257 0.953369 15.7467C0.953369 15.5678 1.02644 15.3986 1.15947 15.2724L14.8651 2.17911L2.50848 2.17911C2.12064 2.17911 1.80587 1.87841 1.80587 1.50789C1.80587 1.13738 2.12064 0.836671 2.50848 0.836671L16.5607 0.83667C16.6422 0.83667 16.7237 0.85099 16.8024 0.877838C16.808 0.879628 16.8127 0.881419 16.8174 0.883209C17.0001 0.954806 17.1396 1.08816 17.2099 1.25193C17.2127 1.25909 17.2165 1.26715 17.2193 1.2752C17.2483 1.34859 17.2633 1.42735 17.2633 1.507L17.2633 14.9323Z" fill="white"/>
</svg>
