<svg id="Calque_1" data-name="Calque 1" xmlns="http://www.w3.org/2000/svg" viewBox="0 0 276 204"><defs><style>.cls-1{fill:#fff;}</style></defs><rect width="276" height="204"/><path class="cls-1" d="M56.86,98.33c.23-.72.42-1.46.69-2.18a18.31,18.31,0,0,1,11-10.94A20.5,20.5,0,0,1,78,84.08a34.74,34.74,0,0,1,8.26,1.81c.33.12.47.26.47.62,0,2.66,0,5.31,0,8v.45a9.23,9.23,0,0,1-1.22.18c-.13,0-.31-.18-.4-.31-1-1.55-2-3.12-3-4.64a11.18,11.18,0,0,0-3.3-3.34,8.22,8.22,0,0,0-8.45-.28,9.67,9.67,0,0,0-4.56,5.57,16.56,16.56,0,0,0-1,5.78c0,3.46,0,6.93.09,10.39a14.17,14.17,0,0,0,2,7.12c1.86,3,4.72,4.12,8.25,4.08a9.11,9.11,0,0,0,7.51-4.11c1.23-1.66,2.33-3.41,3.45-5.14a.63.63,0,0,1,.71-.35c.9.12.9.1.9,1v7.68c0,.29,0,.47-.38.58a39,39,0,0,1-12,2A18.5,18.5,0,0,1,57,107a1.88,1.88,0,0,0-.12-.3Z"/><path class="cls-1" d="M219.86,120.44l-.53,0H197.68v-1.62h7.63l-11-25.25-4.54,8.56-1.59-.83,1.87-3.58L196.79,85a.75.75,0,0,1,.78-.45c1,0,1,0,1.43.9q7.16,16.44,14.32,32.89a.76.76,0,0,0,.84.53c1.9,0,3.8,0,5.7,0Z"/><path class="cls-1" d="M123.59,86.16H118.2V84.58c.14,0,.28,0,.42,0,6.14,0,12.28,0,18.42,0a22.33,22.33,0,0,1,8.62,1.65,8.43,8.43,0,0,1,5.42,7,14.87,14.87,0,0,1-.19,5.48,8.9,8.9,0,0,1-5.54,6.28,19.1,19.1,0,0,1-6.41,1.45c-2.31.13-4.64.14-6.95.2h-.67v12.16h8v1.68h-38.6c-.47,0-.65-.11-.6-.57a9.73,9.73,0,0,0,0-1.09h7.75L97,93.48l-4.55,8.69-1.59-.82c.07-.16.12-.3.19-.43l4.81-9.18c1.2-2.26,2.4-4.52,3.58-6.79a.68.68,0,0,1,.71-.42c1.12,0,1.12,0,1.55,1l14.25,32.82a.69.69,0,0,0,.75.49c2.14,0,4.28,0,6.43,0l.51,0Zm7.71,19c2.47-.08,4.88-.13,7.29-.28a5.36,5.36,0,0,0,1.89-.57,5,5,0,0,0,2.79-4.24,40.81,40.81,0,0,0,0-9.11,5.34,5.34,0,0,0-1.21-3,5.22,5.22,0,0,0-3.93-1.67c-2.21-.09-4.42-.06-6.62-.09l-.21,0Z"/><path class="cls-1" d="M175.77,86.77l-.13-.06c-2.91,0-5.82,0-8.72,0a5.14,5.14,0,0,0-3.36,1.62,25.34,25.34,0,0,0-4.1,5.26c-.54.84-1,1.7-1.52,2.56a.48.48,0,0,1-.53.28c-1-.12-1-.12-1-1.08V85h28.36a2.93,2.93,0,0,1-.31,1.85q-10,15.73-20,31.5c-.08.13-.15.26-.27.45a4.53,4.53,0,0,0,.46,0c3.12,0,6.23,0,9.35,0a6.94,6.94,0,0,0,4.4-1.23,11.46,11.46,0,0,0,2.63-3.06c1-1.65,1.94-3.34,2.89-5,.2-.36.36-.59.83-.42a4,4,0,0,0,.72.13v11.22H154.91a2.89,2.89,0,0,1,.32-1.79q10.16-15.7,20.28-31.45C175.6,87.07,175.67,86.93,175.77,86.77Z"/></svg>