<svg width="44" height="31" viewBox="0 0 44 31" fill="none" xmlns="http://www.w3.org/2000/svg">
<path d="M43.5798 4.02964L35.8039 8.28127C35.3164 8.48292 34.7025 8.51851 34.2317 8.26094C33.3666 7.46789 33.1703 6.3444 32.776 5.33275C33.1021 5.11246 33.6428 5.11415 34.0404 4.94809L35.9935 4.01439L43.46 0H43.6231L43.5798 4.02964Z" fill="#1A1A1A"/>
<path d="M28.7148 14.2787C28.7148 14.2787 26.9496 9.58617 26.0695 7.34076H25.9797C24.529 10.1539 23.3844 13.0941 21.9337 15.9072C20.1419 17.6138 17.6847 17.868 15.3905 18.378L14.8115 18.4492L14.8315 18.173L22.9735 2.62453L23.1914 2.27543L29.332 2.25171C29.6747 2.80417 29.9259 3.44983 30.1771 4.07516L33.576 11.6265L28.7148 14.2787Z" fill="#1A1A1A"/>
<path d="M30.3817 18.6848C23.7637 21.9453 17.0375 25.3548 9.03691 24.7854C5.83935 24.4838 2.62682 22.9315 1.15281 19.7829C-0.485895 17.0749 -0.314538 13.0079 1.51383 10.4727C4.43023 6.2294 8.78903 3.55191 13.3075 2.27248C14.8614 1.92678 17.3003 1.23198 18.3451 3.0198C18.7594 4.10605 19.0987 5.21094 19.315 6.37175C15.5036 6.25313 12.1945 7.81048 9.1567 9.82707C6.76768 11.5691 4.34372 13.8467 3.39876 16.6055C3.12592 17.4325 3.26899 18.4442 3.84628 19.0898C6.22698 21.0268 9.82216 20.5184 12.7851 20.2303C18.4765 19.322 23.6888 16.9546 28.7147 14.2788L33.5743 11.6251L43.5013 6.05316H43.6095L43.6012 10.9472L35.4625 15.8429L30.3817 18.6848Z" fill="#1A1A1A"/>
<path d="M35.4625 15.8428C35.4625 15.8428 38.0512 21.8283 39.274 24.6821L33.8188 24.6703C33.1866 24.6686 32.5911 24.1907 32.3764 23.6179C31.711 21.9605 30.9923 20.3404 30.3817 18.683L35.4625 15.8428Z" fill="#1A1A1A"/>
<path d="M40.6832 27.1953C40.6782 28.1358 40.6765 30.8691 40.6765 30.8691H0.00166434C0.00831898 29.7609 0 27.1953 0 27.1953H40.6832Z" fill="#1A1A1A"/>
</svg>
