<svg width="108" height="26" viewBox="0 0 108 26" fill="none" xmlns="http://www.w3.org/2000/svg">
<path fill-rule="evenodd" clip-rule="evenodd" d="M37.1734 21.9441C34.5849 21.9441 33.1511 19.7667 33.1511 17.4354C33.1511 15.1022 34.6248 12.9638 37.1734 12.9638C39.8017 12.9638 41.2747 15.0244 41.2747 17.4354C41.2747 19.8452 39.8011 21.9441 37.1734 21.9441ZM43.584 11.2135H41.1551V13.2741H41.0753C40.0796 11.7963 38.5667 10.8637 36.6948 10.8637C32.991 10.8637 30.7216 13.9354 30.7216 17.3563C30.7216 20.894 32.9119 24.0436 36.7746 24.0436C38.6059 24.0436 40.1195 23.1109 41.0753 21.6721H41.1551V23.6153H43.584V11.2135ZM48.8406 13.2351H48.9204C49.518 11.7969 50.7524 10.8637 52.3849 10.8637C53.1015 10.8637 53.7789 11.0967 54.3758 11.4471L53.2617 13.6245C52.8236 13.2747 52.3457 13.1189 51.788 13.1189C49.1597 13.1189 48.8413 15.5293 48.8413 17.512V23.6153H46.3718V11.2135H48.8406V13.2351ZM64.5308 14.7512C63.5743 13.6634 62.3798 13.08 60.9073 13.08C58.5177 13.08 56.6465 15.1406 56.6465 17.4354C56.6465 19.9626 58.4772 21.8285 61.0669 21.8285C62.4602 21.8285 63.6142 21.1672 64.5308 20.195V23.2271C63.4154 23.8112 62.3006 24.0436 61.0257 24.0436C57.2821 24.0436 54.2163 21.2438 54.2163 17.512C54.2163 13.7018 57.2428 10.8637 61.1846 10.8637C62.3 10.8637 63.5743 11.1356 64.5302 11.6801V14.7512H64.5308ZM68.5131 16.0349C68.7923 14.2475 70.1862 12.9249 72.0973 12.9249C74.0483 12.9249 75.2833 14.169 75.6011 16.0349H68.5131ZM78.0307 17.8235V17.4354C78.0307 13.7802 76.1588 10.8643 72.0967 10.8643C67.9947 10.8643 65.9241 13.7024 65.9241 17.5126C65.9241 21.1678 68.2739 24.0442 72.136 24.0442C74.6054 24.0442 76.8355 22.8007 78.03 20.6622L75.9987 19.5343C75.0422 21.012 74.0465 21.9441 72.1752 21.9441C69.8659 21.9441 68.3923 19.9224 68.353 17.8235H78.0307ZM80.2203 0.638672H82.6897V23.6159H80.2203V0.638672ZM91.2514 13.1189C93.6803 13.1189 95.5914 15.1022 95.5914 17.4354C95.5914 19.7673 93.6803 21.75 91.2514 21.75C88.8225 21.75 86.9101 19.7667 86.9101 17.4354C86.9101 15.1022 88.8225 13.1189 91.2514 13.1189ZM91.2514 10.8637C87.4684 10.8637 84.4812 13.7018 84.4812 17.4348C84.4812 21.1666 87.4684 24.0436 91.2514 24.0436C95.0343 24.0436 98.0203 21.1666 98.0203 17.4348C98.0203 13.7018 95.0343 10.8637 91.2514 10.8637ZM102.322 13.2351H102.401C103 11.7969 104.233 10.8637 105.865 10.8637C106.582 10.8637 107.3 11.0967 107.897 11.4471L106.783 13.6245C106.344 13.2747 105.866 13.1189 105.269 13.1189C102.64 13.1189 102.322 15.5293 102.322 17.512V23.6153H99.8922V11.2135H102.322V13.2351Z" fill="#1A1A1A"/>
<path fill-rule="evenodd" clip-rule="evenodd" d="M23.3948 8.99767C19.2928 6.08165 13.6386 6.74236 10.4128 10.4365C6.03224 8.1812 1.97014 7.71457 0.576839 9.54217C-1.17537 11.7975 1.77136 16.8131 7.18689 20.8564C5.55431 18.5622 5.51444 15.4527 7.3464 13.0806C9.61642 10.1256 13.9172 9.54217 16.9835 11.7196C20.01 13.9366 20.6469 18.0956 18.3775 21.0511C16.7842 23.0728 14.2362 24.0067 11.8067 23.6167V23.6562C11.8864 23.6946 11.9263 23.7335 11.9662 23.7718C16.1872 26.8053 22.1604 25.9888 25.3065 21.9059C28.452 17.8236 27.6158 12.0305 23.3948 8.99767Z" fill="#1A1A1A"/>
</svg>
