<svg width="114" height="28" viewBox="0 0 114 28" fill="none" xmlns="http://www.w3.org/2000/svg">
<path d="M61.1189 8.73011C60.9281 8.64926 60.7235 8.60416 60.5158 8.59712C60.319 8.59712 60.0642 8.57812 59.761 8.57812C59.3933 8.57812 59.1159 8.57813 58.8902 8.60662C58.6766 8.6194 58.4665 8.66535 58.2677 8.74277C58.0988 8.81259 57.9495 8.92117 57.8322 9.0594C57.7265 9.18692 57.6515 9.3363 57.6129 9.49634L53.1521 22.4337L48.6107 9.42035C48.5552 9.29514 48.486 9.17623 48.4043 9.06573C48.2878 8.92263 48.134 8.81321 47.9592 8.7491C47.7529 8.67017 47.5351 8.6242 47.3141 8.61295C47.0818 8.59396 46.7787 8.58446 46.3884 8.58446C46.0852 8.58446 45.8304 8.59079 45.624 8.60345C45.4207 8.61199 45.2197 8.64932 45.0272 8.71427C44.846 8.77464 44.689 8.88995 44.5789 9.04356C44.478 9.18905 44.425 9.36149 44.4273 9.5375C44.4273 9.58816 44.4273 9.65149 44.4273 9.72114C44.4451 9.82787 44.4688 9.93357 44.4983 10.0378C44.5338 10.1549 44.5757 10.2942 44.6337 10.4589L50.4911 26.5276C50.562 26.7108 50.6752 26.8754 50.8219 27.0083C50.9685 27.1413 51.1446 27.239 51.3362 27.2939C51.5678 27.3602 51.8055 27.4037 52.0458 27.4237C52.32 27.449 52.6554 27.4648 53.0457 27.4648C53.436 27.4648 53.7488 27.4648 54.0327 27.4332C54.2784 27.4198 54.5218 27.3795 54.7584 27.3129C54.9695 27.2572 55.1619 27.148 55.3164 26.9962C55.4441 26.8576 55.5418 26.695 55.6034 26.5181L61.4834 10.4367C61.5092 10.3449 61.535 10.2594 61.5544 10.1866C61.5737 10.1138 61.5931 10.0251 61.606 9.95228C61.6205 9.8843 61.6313 9.81559 61.6382 9.74647C61.6427 9.67688 61.6427 9.60709 61.6382 9.5375C61.6404 9.36772 61.5935 9.20081 61.5028 9.05623C61.4056 8.91682 61.2734 8.80447 61.1189 8.73011Z" fill="#EA6419"/>
<path d="M77.1557 10.6772C76.4739 9.89243 75.622 9.26716 74.6624 8.8471C73.5132 8.37159 72.2741 8.14169 71.0274 8.17269C69.7959 8.15633 68.5741 8.38802 67.4374 8.85344C66.3791 9.29825 65.4357 9.97011 64.6765 10.8197C63.8883 11.725 63.2967 12.7787 62.938 13.9163C62.5243 15.2239 62.3229 16.5874 62.3413 17.9565C62.3177 19.3588 62.5124 20.7565 62.9186 22.1011C63.2586 23.2267 63.8528 24.2624 64.6571 25.1313C65.4468 25.9533 66.4224 26.5813 67.5052 26.9645C68.7487 27.3898 70.0591 27.5956 71.3757 27.5725C72.1708 27.5749 72.9647 27.5135 73.7496 27.3888C74.4016 27.2837 75.0476 27.1452 75.6849 26.974C76.1645 26.8495 76.6336 26.6885 77.0879 26.4928C77.3572 26.3934 77.6078 26.2511 77.8298 26.0716C77.9228 25.9765 78.003 25.8701 78.0685 25.755C78.1383 25.6376 78.1864 25.509 78.2104 25.3751C78.2355 25.2569 78.2539 25.1375 78.2652 25.0173C78.2819 24.8627 78.2895 24.7073 78.2878 24.5518C78.2908 24.3403 78.28 24.1288 78.2556 23.9186C78.2405 23.7535 78.2014 23.5915 78.1394 23.4373C78.0735 23.2799 77.9612 23.1454 77.8169 23.051C77.4943 22.8547 77.1428 22.8737 76.4945 23.1555C76.2106 23.279 75.8333 23.4246 75.3752 23.5829C74.8483 23.7615 74.3094 23.9043 73.7625 24.0104C73.0698 24.143 72.3653 24.2066 71.6595 24.2004C70.8152 24.223 69.9744 24.0864 69.1824 23.7983C68.5684 23.5617 68.0249 23.1774 67.6019 22.6806C67.1798 22.1603 66.8802 21.5548 66.7246 20.9074C66.5623 20.2453 66.4714 19.5682 66.4537 18.8874H77.3621C77.5941 18.8948 77.825 18.8531 78.039 18.7649C78.253 18.6768 78.4452 18.5443 78.6023 18.3765C78.7593 18.2088 78.8777 18.0098 78.9492 17.793C79.0208 17.5762 79.0438 17.3469 79.0168 17.1206V16.5886C79.0227 15.4989 78.8717 14.4137 78.5684 13.3654C78.2904 12.3837 77.8095 11.4686 77.1557 10.6772ZM75.0108 15.8161H66.4924C66.545 15.3276 66.6532 14.8465 66.8149 14.3818C67.0013 13.8249 67.2886 13.3057 67.6632 12.8493C68.0326 12.4145 68.4908 12.0607 69.0082 11.8107C69.5932 11.5423 70.2334 11.4101 70.879 11.4245C72.2853 11.4245 73.3077 11.8297 74.0077 12.6625C74.6431 13.4224 74.9817 14.4894 75.0108 15.8161Z" fill="#EA6419"/>
<path d="M96.0147 10.5724C95.4742 9.86813 94.7697 9.30135 93.9601 8.91954C92.996 8.47706 91.9405 8.26028 90.8766 8.28627C89.7883 8.29745 88.719 8.56802 87.7608 9.07469C86.9242 9.52218 86.1573 10.0852 85.4837 10.7465V9.57497C85.4855 9.40522 85.4386 9.23841 85.3482 9.09368C85.2536 8.96041 85.1274 8.85173 84.9805 8.77705C84.7963 8.68316 84.5941 8.62815 84.387 8.61557C84.1405 8.59154 83.8928 8.58097 83.6452 8.5839C83.3942 8.58037 83.1433 8.59094 82.8936 8.61557C82.6912 8.63078 82.4933 8.68229 82.3098 8.76755C82.1375 8.84308 81.9933 8.96919 81.897 9.12851C81.8218 9.26784 81.7841 9.42368 81.7873 9.5813V26.48C81.7845 26.6479 81.8316 26.8129 81.9228 26.955C82.0287 27.1107 82.1823 27.2293 82.3614 27.2938C82.5542 27.3668 82.7559 27.4147 82.9614 27.4363C83.2334 27.465 83.507 27.4788 83.7806 27.4774C84.0597 27.479 84.3385 27.4653 84.616 27.4363C84.821 27.4162 85.022 27.3671 85.2127 27.2906C85.3792 27.2245 85.5242 27.115 85.632 26.974C85.7363 26.8299 85.7906 26.6567 85.7868 26.48V14.8089C86.453 13.9727 87.2296 13.2273 88.0963 12.5925C88.708 12.1292 89.4528 11.8666 90.225 11.8421C90.718 11.8317 91.2068 11.9325 91.6539 12.1365C92.0459 12.3265 92.3798 12.6149 92.6215 12.9724C92.9055 13.399 93.1128 13.8702 93.2344 14.3656C93.3951 15.0935 93.4677 15.8375 93.4505 16.5821V26.4769C93.4472 26.6545 93.5014 26.8285 93.6053 26.974C93.7146 27.1136 93.8591 27.2227 94.0246 27.2906C94.2164 27.3671 94.4185 27.4161 94.6245 27.4363C95.1747 27.4911 95.729 27.4911 96.2792 27.4363C96.4831 27.4158 96.6829 27.3668 96.8727 27.2906C97.0392 27.2245 97.1841 27.115 97.292 26.974C97.3983 26.8295 97.4537 26.655 97.45 26.4769V16.1641C97.4699 15.0936 97.3617 14.0245 97.1275 12.9788C96.9274 12.1106 96.5488 11.2917 96.0147 10.5724Z" fill="#EA6419"/>
<path d="M112.587 19.6786C112.329 19.1222 111.963 18.6201 111.51 18.1999C111.062 17.7891 110.555 17.4437 110.007 17.174C109.472 16.9081 108.92 16.6642 108.365 16.4458C107.81 16.2273 107.288 16.0247 106.752 15.8125C106.292 15.6416 105.848 15.4296 105.427 15.1793C105.096 14.9762 104.807 14.7154 104.572 14.4098C104.353 14.1263 104.239 13.7777 104.25 13.4219C104.248 13.1433 104.305 12.8673 104.417 12.6114C104.524 12.3659 104.689 12.1489 104.898 11.9781C105.147 11.7802 105.436 11.6357 105.746 11.5538C106.166 11.4399 106.601 11.3856 107.036 11.3923C107.534 11.3851 108.031 11.448 108.51 11.5792C108.905 11.6944 109.292 11.8351 109.668 12.0003C109.941 12.1198 110.206 12.2584 110.459 12.4151C111 12.757 111.339 12.7539 111.639 12.548C111.781 12.4481 111.892 12.3124 111.962 12.1554C112.026 11.9961 112.068 11.8288 112.087 11.6583C112.109 11.4574 112.12 11.2556 112.12 11.0536C112.121 10.8651 112.109 10.6768 112.084 10.49C112.065 10.3443 112.045 10.2208 112.023 10.1132C111.997 9.98182 111.949 9.85559 111.881 9.73954C111.781 9.58774 111.652 9.45654 111.5 9.35325C111.297 9.20628 111.081 9.07703 110.855 8.96696C110.53 8.80796 110.191 8.67661 109.842 8.57434C109.42 8.44628 108.989 8.34788 108.552 8.27987C108.075 8.20039 107.592 8.16015 107.107 8.15955C106.127 8.14234 105.15 8.29013 104.221 8.5965C103.449 8.85259 102.736 9.25374 102.121 9.77753C101.56 10.2543 101.119 10.8512 100.831 11.5222C100.548 12.175 100.403 12.8773 100.405 13.5866C100.387 14.3091 100.526 15.027 100.814 15.6922C101.068 16.2632 101.429 16.782 101.879 17.2215C102.321 17.6396 102.82 17.9945 103.363 18.2759C103.891 18.5517 104.435 18.799 104.991 19.0168C105.536 19.2321 106.062 19.4348 106.575 19.6279C107.029 19.7999 107.466 20.0118 107.881 20.2612C108.221 20.4585 108.521 20.7162 108.765 21.0211C108.967 21.2971 109.069 21.6314 109.055 21.971C109.066 22.3214 108.993 22.6693 108.843 22.9874C108.705 23.2606 108.498 23.4949 108.243 23.6681C107.94 23.8717 107.602 24.0197 107.246 24.1051C106.806 24.2141 106.354 24.2663 105.901 24.2602C105.303 24.27 104.707 24.191 104.133 24.0259C103.667 23.8864 103.213 23.7106 102.776 23.5003C102.385 23.3072 102.056 23.1267 101.792 22.9652C101.176 22.5821 100.792 22.5789 100.485 22.7752C100.331 22.8759 100.217 23.0258 100.163 23.1995C100.107 23.3534 100.068 23.5126 100.047 23.6744C100.015 23.8936 99.9998 24.1148 100.002 24.3362C99.9914 24.6837 100.029 25.031 100.115 25.3684C100.182 25.6435 100.33 25.8933 100.54 26.0872C100.772 26.2806 101.028 26.4444 101.301 26.5748C101.682 26.7623 102.077 26.9211 102.482 27.0497C103.572 27.3939 104.711 27.5691 105.856 27.569C106.82 27.5767 107.781 27.4509 108.71 27.1954C109.538 26.968 110.313 26.5864 110.994 26.0713C111.638 25.5762 112.155 24.9396 112.503 24.2127C112.863 23.4324 113.043 22.5836 113.029 21.7272C113.036 21.0208 112.885 20.3216 112.587 19.6786Z" fill="#EA6419"/>
<path d="M29.7415 18.3368C29.7416 18.1501 29.7024 17.9654 29.6264 17.7943C29.5503 17.6232 29.4391 17.4694 29.2997 17.3424C28.9643 17.0461 28.5248 16.8894 28.074 16.9054H13.9692C12.9048 16.9054 12.3564 17.6243 12.3564 18.3337C12.3585 18.5271 12.401 18.7181 12.4815 18.8947C12.5619 19.0713 12.6786 19.2297 12.8241 19.3602C12.9697 19.4906 13.141 19.5902 13.3274 19.6528C13.5139 19.7153 13.7115 19.7396 13.9079 19.7239H28.174C28.3703 19.7367 28.5673 19.7108 28.7532 19.6475C28.9391 19.5843 29.1103 19.4851 29.2564 19.3557C29.4026 19.2264 29.5208 19.0696 29.6042 18.8945C29.6875 18.7195 29.7342 18.5299 29.7415 18.3368Z" fill="#1184D1"/>
<path d="M10.2666 24.2134C7.34112 24.2134 5.22846 21.5093 5.22846 17.7825C5.22846 14.5656 6.81537 11.3169 10.3569 11.3169C13.5017 11.3169 14.6596 13.9734 15.0628 15.4648H19.5107V8.98964C19.5122 8.86649 19.4838 8.74476 19.4277 8.6346C19.3716 8.52445 19.2894 8.42905 19.1881 8.35638C19.024 8.24283 18.8371 8.1651 18.6398 8.1284C18.3746 8.08444 18.1056 8.06536 17.8367 8.0714C17.5678 8.06672 17.299 8.08579 17.0335 8.1284C16.8209 8.15937 16.6199 8.24331 16.4497 8.37221C16.3643 8.45089 16.2973 8.54685 16.2533 8.65345C16.2093 8.76005 16.1894 8.87476 16.1949 8.98964V9.97437C14.5522 8.6956 12.5044 8.02327 10.4085 8.07457C4.86398 8.07457 0.990234 12.118 0.990234 17.906C0.990234 23.5453 4.73819 27.4842 10.1085 27.4842C12.342 27.4977 14.51 26.7439 16.2369 25.3533V26.5375C16.2292 26.6558 16.249 26.7743 16.2948 26.884C16.3406 26.9937 16.4112 27.0918 16.5014 27.1707C16.6729 27.302 16.8763 27.3871 17.0916 27.4177C17.3567 27.4633 17.6257 27.4835 17.8947 27.4779C18.1638 27.4846 18.4329 27.4645 18.6979 27.4177C18.8941 27.381 19.08 27.3032 19.243 27.1897C19.3443 27.1171 19.4264 27.0217 19.4825 26.9115C19.5386 26.8013 19.5671 26.6796 19.5655 26.5565V21.1864H14.6177C13.7307 23.0703 12.1212 24.2134 10.2666 24.2134Z" fill="#1184D1"/>
<path d="M42.1112 8.46183C41.5864 6.93935 40.7314 5.5468 39.605 4.38032C38.453 3.22757 37.0521 2.3435 35.5055 1.79336C33.6018 1.15481 31.598 0.852495 29.5868 0.900433H23.6133C23.2153 0.903083 22.8295 1.03564 22.5167 1.27724C22.3209 1.44478 22.1685 1.65561 22.072 1.89234C21.9756 2.12907 21.9378 2.38492 21.9619 2.63879V15.4659H26.155V4.44048H29.3804C31.1479 4.44048 32.6058 4.68113 33.7154 5.15293C34.7736 5.59289 35.7133 6.2682 36.4602 7.1256C37.2025 8.00899 37.7465 9.03616 38.0568 10.14C38.4114 11.3849 38.5862 12.6725 38.5761 13.9651C38.5826 15.4834 38.3653 16.9946 37.931 18.4519C37.613 19.5903 37.0425 20.6457 36.2603 21.5423C35.5064 22.362 34.5564 22.9844 33.4961 23.3535C32.4639 23.7239 30.7286 23.9551 28.9804 23.9551H26.0776V21.1876H21.8845V25.7726C21.8604 26.026 21.8982 26.2814 21.9947 26.5176C22.0911 26.7538 22.2435 26.9641 22.4393 27.131C22.7502 27.3741 23.1352 27.5079 23.5327 27.511H29.1288C31.1457 27.5508 33.1558 27.2674 35.0797 26.6719C36.6839 26.153 38.1442 25.2774 39.347 24.1134C40.5537 22.9002 41.4608 21.4312 41.9983 19.8197C42.6559 17.8879 42.9828 15.8625 42.9659 13.8257C42.9884 12.0034 42.6995 10.1903 42.1112 8.46183Z" fill="#1184D1"/>
</svg>
