<svg width="111" height="27" viewBox="0 0 111 27" fill="none" xmlns="http://www.w3.org/2000/svg">
<g clip-path="url(#clip0_2_147)">
<path d="M4.90009 21.2889L6.16322 17.2379H11.1657L12.3502 21.2889H16.9836L12.3764 5.83851C12.1133 4.93166 11.5335 4.50381 10.5335 4.50381H3.97979V5.96371H4.53219C5.21672 5.96371 5.58576 6.21628 5.58576 6.71816C5.58576 7.04584 5.50603 7.32237 5.24292 8.0779L0.634583 21.2889H4.90009ZM10.5335 14.4945H6.82156L8.79542 8.32829L10.5335 14.4945ZM22.322 21.2889V5.78735C22.322 4.98282 21.8231 4.50381 21.0054 4.50381H16.9517V5.96371H17.2148C17.8993 5.96371 18.1886 6.24023 18.1886 6.89452V21.2878H22.322V21.2889ZM29.3439 21.2889V5.78735C29.3439 4.98282 28.8427 4.50381 28.0295 4.50381H23.9736V5.96371H24.2367C24.9212 5.96371 25.2105 6.24023 25.2105 6.89452V21.2878H29.3439V21.2889ZM36.4728 21.2889V9.98851C36.4728 9.18507 35.9728 8.70715 35.1573 8.70715H31.1549V10.1409H31.3929C32.0774 10.1409 32.3667 10.4425 32.3667 11.0968V21.2878H36.4728V21.2889ZM36.5514 6.03883C36.5514 4.90662 35.6835 4.22729 34.1823 4.22729C32.7073 4.22729 31.8132 4.90662 31.8132 6.03883C31.8132 7.17104 32.7073 7.85146 34.1823 7.85146C35.6835 7.85146 36.5514 7.17104 36.5514 6.03883ZM39.9672 12.3041C41.3363 11.6759 42.8374 11.3243 44.022 11.3243C45.1268 11.3243 45.522 11.7021 45.522 12.8071V13.0847C43.8375 13.3351 43.3113 13.4374 42.3636 13.6388C41.8328 13.7561 41.3131 13.9156 40.81 14.1156C39.1517 14.7449 38.3612 15.9783 38.3612 17.8639C38.3612 20.2535 39.441 21.413 41.6791 21.413C42.4946 21.413 43.2327 21.2638 43.8899 21.0112C44.4696 20.7609 44.8113 20.5584 45.6542 19.9291V20.1055C45.6542 20.8861 46.0756 21.2878 46.8911 21.2878H50.6554V19.9291H50.4721C49.7602 19.9291 49.4971 19.6276 49.4971 18.8209V12.8332C49.4971 9.63687 48.3387 8.5297 44.9947 8.5297C43.9172 8.5297 42.8648 8.65489 41.8363 8.88134C40.81 9.10778 40.2827 9.30918 39.0458 9.88944L39.9672 12.3041ZM45.522 15.25V17.6908C44.8375 18.3691 43.9958 18.773 43.2839 18.773C42.5481 18.773 42.285 18.4202 42.285 17.4883C42.285 16.5564 42.4946 16.1297 43.2327 15.8532C43.7851 15.6267 44.4958 15.4264 45.522 15.25ZM56.6522 21.2889V12.7842C57.3367 12.0548 58.0475 11.7271 58.863 11.7271C59.732 11.7271 59.9416 12.0548 59.9416 13.3144V21.2899H64.0476V12.7352C64.0476 10.7473 63.8905 10.1191 63.231 9.43873C62.6786 8.85956 61.8369 8.55582 60.756 8.55582C59.1523 8.55582 58.019 9.03484 56.4916 10.3935V9.89053C56.4916 9.10887 56.0725 8.70715 55.2273 8.70715H51.332V10.1409H51.5689C52.2546 10.1409 52.5439 10.4425 52.5439 11.0968V21.2878H56.6522V21.2889ZM76.2348 18.6456H70.4943L75.9717 11.2993V8.70715H67.3894C66.4133 8.70715 65.968 9.13391 65.968 10.0658V12.3542H67.4954V12.1288C67.4954 11.5507 67.8109 11.2731 68.4681 11.2731H71.418L65.8894 18.6967V21.2889H76.2371V18.6456H76.2348ZM110.611 13.4875C110.611 5.76231 104.581 0 96.4962 0C88.4151 0 82.3591 5.76231 82.3591 13.4875C82.3591 21.2377 88.4151 27 96.4962 27C104.581 27 110.611 21.2377 110.611 13.4875ZM107.819 13.4875C107.819 19.854 103.026 24.4852 96.4962 24.4852C89.9414 24.4852 85.177 19.854 85.177 13.4875C85.177 7.14709 89.9425 2.517 96.4962 2.517C103.026 2.517 107.819 7.14709 107.819 13.4875ZM92.8378 20.6084V8.4045H90.5462C89.414 8.4045 88.9653 8.83235 88.9653 9.91448V20.6074H92.8378V20.6084ZM100.155 20.6084H104V9.91448C104 8.83235 103.578 8.4045 102.419 8.4045H100.155V20.6084ZM98.4188 20.6084V6.44272C98.4188 5.30942 98.0236 4.93166 96.8379 4.93166H93.3902V6.49171H93.6009L93.97 6.51566C94.1021 6.51566 94.2319 6.59187 94.339 6.69312C94.4973 6.86839 94.5486 7.04476 94.5486 7.42252V20.6084H98.4188Z" fill="#1A1A1A"/>
</g>
<defs>
<clipPath id="clip0_2_147">
<rect width="110" height="27" fill="white" transform="translate(0.623047)"/>
</clipPath>
</defs>
</svg>
