<svg width="24" height="24" viewBox="0 0 24 24" fill="none" xmlns="http://www.w3.org/2000/svg">
<path d="M12 18.5V23.5" stroke="black" stroke-linecap="round" stroke-linejoin="round"/>
<path d="M12 0.5C10.9391 0.5 9.92172 0.921427 9.17157 1.67157C8.42143 2.42172 8 3.43913 8 4.5V11.5C8 12.5609 8.42143 13.5783 9.17157 14.3284C9.92172 15.0786 10.9391 15.5 12 15.5C13.0609 15.5 14.0783 15.0786 14.8284 14.3284C15.5786 13.5783 16 12.5609 16 11.5V4.5C16 3.43913 15.5786 2.42172 14.8284 1.67157C14.0783 0.921427 13.0609 0.5 12 0.5V0.5Z" stroke="black" stroke-linecap="round" stroke-linejoin="round"/>
<path d="M19 8.5V11.5C19 13.3565 18.2625 15.137 16.9497 16.4497C15.637 17.7625 13.8565 18.5 12 18.5C10.1435 18.5 8.36301 17.7625 7.05025 16.4497C5.7375 15.137 5 13.3565 5 11.5V8.5" stroke="black" stroke-linecap="round" stroke-linejoin="round"/>
</svg>
