<svg width="19" height="19" viewBox="0 0 19 19" fill="none" xmlns="http://www.w3.org/2000/svg">
<path d="M1.67913 18.5092C1.22551 18.5092 0.817801 18.2575 0.615135 17.8529C0.533593 17.6883 0.490051 17.5054 0.490051 17.3225V1.67603C0.490843 1.02132 1.02363 0.488525 1.67755 0.488525C1.87547 0.492484 2.04726 0.53365 2.20797 0.613609L17.8545 8.43686C18.1387 8.57936 18.3493 8.82319 18.4498 9.12403C18.5503 9.42486 18.5266 9.74707 18.3841 10.0305C18.2709 10.2577 18.0825 10.4461 17.8545 10.5601L2.20797 18.3841C2.04172 18.4673 1.86359 18.5092 1.67913 18.5092ZM1.67755 1.28098C1.45905 1.28098 1.28172 1.45832 1.28172 1.67682V17.3233C1.28172 17.3843 1.29597 17.4452 1.32368 17.5007C1.39097 17.6352 1.52713 17.7192 1.67834 17.7192C1.74009 17.7192 1.79868 17.7049 1.85488 17.6772L17.5014 9.85394C17.5766 9.81594 17.6391 9.7534 17.6771 9.67819C17.7246 9.58319 17.7326 9.47632 17.6993 9.37578C17.6661 9.27523 17.5956 9.19448 17.5014 9.14698L1.85409 1.32215C1.79947 1.29523 1.73851 1.28098 1.67755 1.28098Z" fill="black" stroke="black" stroke-width="0.2"/>
</svg>
