<svg width="20" height="19" viewBox="0 0 20 19" fill="none" xmlns="http://www.w3.org/2000/svg">
<path d="M18.4065 18.9356C18.2378 18.9356 18.0784 18.8698 17.9594 18.75L13.6741 14.5679C13.0321 15.1171 12.3091 15.565 11.5203 15.8999C10.4835 16.3402 9.39445 16.5637 8.28342 16.5637C7.22301 16.5637 6.18116 16.3604 5.18486 15.9581C3.13406 15.1306 1.52869 13.5548 0.663993 11.5194C-0.200701 9.48475 -0.221791 7.23419 0.605784 5.18439C1.43336 3.13459 3.00921 1.52849 5.04398 0.663865C6.08077 0.222694 7.16902 0 8.28089 0C9.3413 0 10.3832 0.204136 11.3794 0.605661C13.4302 1.43317 15.0356 3.0089 15.9003 5.04436C16.765 7.07982 16.7861 9.32954 15.9585 11.3793C15.6194 12.2195 15.152 12.9897 14.5674 13.6721L18.8545 17.8558C19.1008 18.1022 19.1008 18.5037 18.8545 18.7508C18.7347 18.8698 18.5752 18.9356 18.4065 18.9356ZM8.28089 1.26531C7.34027 1.26531 6.41737 1.45426 5.53918 1.82795C3.81485 2.56098 2.47943 3.92077 1.77839 5.65762C1.07736 7.39446 1.09507 9.30002 1.82732 11.0242C2.56041 12.7484 3.9203 14.0837 5.65728 14.7847C6.50173 15.1255 7.38498 15.2976 8.28258 15.2976C9.2232 15.2976 10.1461 15.1086 11.0243 14.7349C11.846 14.3857 12.5824 13.8931 13.2126 13.2706C13.221 13.2587 13.2303 13.2486 13.2396 13.2393C13.2531 13.2259 13.2657 13.2149 13.2776 13.2064C13.9212 12.5561 14.4324 11.7783 14.7842 10.9053C15.4853 9.16843 15.4676 7.26287 14.7345 5.53868C14.0022 3.81448 12.6415 2.47916 10.9045 1.77818C10.0617 1.43823 9.17848 1.26531 8.28089 1.26531Z" fill="black"/>
</svg>
